<svg width="32" height="32" viewBox="0 0 32 32" fill="none" xmlns="http://www.w3.org/2000/svg">
<path d="M14.6667 26.6667V6.66667H26.6667V10.6667H18.6667V14.6667H25.3333V18.6667H18.6667V26.6667H14.6667ZM8 4C9.06087 4 10.0783 4.42143 10.8284 5.17157C11.5786 5.92172 12 6.93913 12 8C12 9.06087 11.5786 10.0783 10.8284 10.8284C10.0783 11.5786 9.06087 12 8 12C6.93913 12 5.92172 11.5786 5.17157 10.8284C4.42143 10.0783 4 9.06087 4 8C4 6.93913 4.42143 5.92172 5.17157 5.17157C5.92172 4.42143 6.93913 4 8 4V4ZM8 6.66667C7.64638 6.66667 7.30724 6.80714 7.05719 7.05719C6.80714 7.30724 6.66667 7.64638 6.66667 8C6.66667 8.35362 6.80714 8.69276 7.05719 8.94281C7.30724 9.19286 7.64638 9.33333 8 9.33333C8.35362 9.33333 8.69276 9.19286 8.94281 8.94281C9.19286 8.69276 9.33333 8.35362 9.33333 8C9.33333 7.64638 9.19286 7.30724 8.94281 7.05719C8.69276 6.80714 8.35362 6.66667 8 6.66667Z" fill="#424772"/>
</svg>
