<svg width="121" height="121" viewBox="0 0 121 121" fill="none" xmlns="http://www.w3.org/2000/svg">
<path d="M105.875 7.5625C107.881 7.5625 109.804 8.35926 111.222 9.7775C112.641 11.1957 113.438 13.1193 113.438 15.125V105.875C113.438 107.881 112.641 109.804 111.222 111.222C109.804 112.641 107.881 113.438 105.875 113.438H15.125C13.1193 113.438 11.1957 112.641 9.7775 111.222C8.35926 109.804 7.5625 107.881 7.5625 105.875V15.125C7.5625 13.1193 8.35926 11.1957 9.7775 9.7775C11.1957 8.35926 13.1193 7.5625 15.125 7.5625H105.875ZM15.125 0C11.1136 0 7.2665 1.59352 4.43001 4.43001C1.59352 7.2665 0 11.1136 0 15.125L0 105.875C0 109.886 1.59352 113.733 4.43001 116.57C7.2665 119.406 11.1136 121 15.125 121H105.875C109.886 121 113.733 119.406 116.57 116.57C119.406 113.733 121 109.886 121 105.875V15.125C121 11.1136 119.406 7.2665 116.57 4.43001C113.733 1.59352 109.886 0 105.875 0L15.125 0Z" fill="#424772"/>
<path d="M60.5 30.25C61.5028 30.25 62.4646 30.6484 63.1738 31.3575C63.8829 32.0666 64.2812 33.0284 64.2812 34.0312V56.7188H86.9688C87.9716 56.7188 88.9334 57.1171 89.6425 57.8263C90.3516 58.5354 90.75 59.4972 90.75 60.5C90.75 61.5028 90.3516 62.4646 89.6425 63.1738C88.9334 63.8829 87.9716 64.2812 86.9688 64.2812H64.2812V86.9688C64.2812 87.9716 63.8829 88.9334 63.1738 89.6425C62.4646 90.3516 61.5028 90.75 60.5 90.75C59.4972 90.75 58.5354 90.3516 57.8263 89.6425C57.1171 88.9334 56.7188 87.9716 56.7188 86.9688V64.2812H34.0312C33.0284 64.2812 32.0666 63.8829 31.3575 63.1738C30.6484 62.4646 30.25 61.5028 30.25 60.5C30.25 59.4972 30.6484 58.5354 31.3575 57.8263C32.0666 57.1171 33.0284 56.7188 34.0312 56.7188H56.7188V34.0312C56.7188 33.0284 57.1171 32.0666 57.8263 31.3575C58.5354 30.6484 59.4972 30.25 60.5 30.25V30.25Z" fill="#424772"/>
</svg>
