<svg width="28" height="28" viewBox="0 0 28 28" fill="none" xmlns="http://www.w3.org/2000/svg">
<path d="M22.2185 8.63509C22.6595 8.19409 22.9022 7.60842 22.9022 6.98542C22.9022 6.36242 22.6595 5.77676 22.2185 5.33576L20.3682 3.48542C19.9272 3.04442 19.3415 2.80176 18.7185 2.80176C18.0955 2.80176 17.5098 3.04442 17.07 3.48426L4.66602 15.8498V21.0006H9.81452L22.2185 8.63509ZM18.7185 5.13509L20.57 6.98426L18.715 8.83226L16.8647 6.98309L18.7185 5.13509ZM6.99935 18.6673V16.8181L15.2127 8.63042L17.063 10.4808L8.85085 18.6673H6.99935ZM4.66602 23.3339H23.3327V25.6673H4.66602V23.3339Z" fill="#424772"/>
</svg>
